<mxfile host="app.diagrams.net" agent="Mozilla/5.0 (Windows NT 10.0; Win64; x64) AppleWebKit/537.36 (KHTML, like Gecko) Chrome/128.0.0.0 Safari/537.36" version="24.7.12">
  <diagram name="Page-1" id="_6BbtZnAridV8mcd7BpB">
    <mxGraphModel dx="952" dy="519" grid="1" gridSize="10" guides="1" tooltips="1" connect="1" arrows="1" fold="1" page="1" pageScale="1" pageWidth="850" pageHeight="1100" math="0" shadow="0">
      <root>
        <mxCell id="0" />
        <mxCell id="1" parent="0" />
        <mxCell id="GMaoftWNbb0csuufRk0r-76" style="edgeStyle=orthogonalEdgeStyle;rounded=0;orthogonalLoop=1;jettySize=auto;html=1;entryX=0;entryY=0.5;entryDx=0;entryDy=0;" parent="1" edge="1">
          <mxGeometry relative="1" as="geometry">
            <Array as="points">
              <mxPoint x="440" y="350" />
              <mxPoint x="10" y="350" />
              <mxPoint x="10" y="500" />
            </Array>
            <mxPoint x="440" y="300" as="sourcePoint" />
          </mxGeometry>
        </mxCell>
        <mxCell id="sQbzJU6BTs8ZrNbQ2yf6-5" value="Digital Library Archive" style="swimlane;childLayout=stackLayout;resizeParent=1;resizeParentMax=0;startSize=20;html=1;" parent="1" vertex="1">
          <mxGeometry x="240" y="20" width="590" height="740" as="geometry">
            <mxRectangle x="220" y="20" width="160" height="30" as="alternateBounds" />
          </mxGeometry>
        </mxCell>
        <mxCell id="sQbzJU6BTs8ZrNbQ2yf6-6" value="User" style="swimlane;startSize=20;html=1;" parent="sQbzJU6BTs8ZrNbQ2yf6-5" vertex="1">
          <mxGeometry y="20" width="170" height="720" as="geometry">
            <mxRectangle y="20" width="40" height="560" as="alternateBounds" />
          </mxGeometry>
        </mxCell>
        <mxCell id="hMkO9IF_Y1Dr7hpX967E-74" style="edgeStyle=orthogonalEdgeStyle;rounded=0;orthogonalLoop=1;jettySize=auto;html=1;entryX=0.5;entryY=0;entryDx=0;entryDy=0;strokeColor=#82b366;fillColor=#d5e8d4;" edge="1" parent="sQbzJU6BTs8ZrNbQ2yf6-6" source="sQbzJU6BTs8ZrNbQ2yf6-10" target="sQbzJU6BTs8ZrNbQ2yf6-46">
          <mxGeometry relative="1" as="geometry" />
        </mxCell>
        <mxCell id="sQbzJU6BTs8ZrNbQ2yf6-10" value="" style="shape=waypoint;sketch=0;fillStyle=solid;size=6;pointerEvents=1;points=[];fillColor=none;resizable=0;rotatable=0;perimeter=centerPerimeter;snapToPoint=1;" parent="sQbzJU6BTs8ZrNbQ2yf6-6" vertex="1">
          <mxGeometry x="75" y="20" width="20" height="20" as="geometry" />
        </mxCell>
        <mxCell id="hMkO9IF_Y1Dr7hpX967E-48" style="edgeStyle=orthogonalEdgeStyle;rounded=0;orthogonalLoop=1;jettySize=auto;html=1;entryX=0.5;entryY=0;entryDx=0;entryDy=0;fillColor=#dae8fc;strokeColor=#6c8ebf;" edge="1" parent="sQbzJU6BTs8ZrNbQ2yf6-6" source="sQbzJU6BTs8ZrNbQ2yf6-46" target="hMkO9IF_Y1Dr7hpX967E-47">
          <mxGeometry relative="1" as="geometry" />
        </mxCell>
        <mxCell id="sQbzJU6BTs8ZrNbQ2yf6-46" value="Homepage" style="rounded=0;whiteSpace=wrap;html=1;fontSize=10;" parent="sQbzJU6BTs8ZrNbQ2yf6-6" vertex="1">
          <mxGeometry x="57.5" y="60" width="55" height="20" as="geometry" />
        </mxCell>
        <mxCell id="hMkO9IF_Y1Dr7hpX967E-43" value="Sign up" style="rounded=0;whiteSpace=wrap;html=1;fontSize=10;" vertex="1" parent="sQbzJU6BTs8ZrNbQ2yf6-6">
          <mxGeometry x="100" y="210" width="55" height="20" as="geometry" />
        </mxCell>
        <mxCell id="hMkO9IF_Y1Dr7hpX967E-44" value="Log In" style="rounded=0;whiteSpace=wrap;html=1;fontSize=10;" vertex="1" parent="sQbzJU6BTs8ZrNbQ2yf6-6">
          <mxGeometry x="15" y="210" width="55" height="20" as="geometry" />
        </mxCell>
        <mxCell id="hMkO9IF_Y1Dr7hpX967E-53" style="edgeStyle=orthogonalEdgeStyle;rounded=0;orthogonalLoop=1;jettySize=auto;html=1;entryX=0.5;entryY=0;entryDx=0;entryDy=0;fillColor=#d5e8d4;strokeColor=#82b366;" edge="1" parent="sQbzJU6BTs8ZrNbQ2yf6-6" source="hMkO9IF_Y1Dr7hpX967E-47" target="hMkO9IF_Y1Dr7hpX967E-49">
          <mxGeometry relative="1" as="geometry" />
        </mxCell>
        <mxCell id="hMkO9IF_Y1Dr7hpX967E-47" value="" style="rhombus;whiteSpace=wrap;html=1;" vertex="1" parent="sQbzJU6BTs8ZrNbQ2yf6-6">
          <mxGeometry x="75" y="100" width="20" height="20" as="geometry" />
        </mxCell>
        <mxCell id="hMkO9IF_Y1Dr7hpX967E-58" style="edgeStyle=orthogonalEdgeStyle;rounded=0;orthogonalLoop=1;jettySize=auto;html=1;entryX=0.5;entryY=0;entryDx=0;entryDy=0;fillColor=#dae8fc;strokeColor=#6c8ebf;" edge="1" parent="sQbzJU6BTs8ZrNbQ2yf6-6" source="hMkO9IF_Y1Dr7hpX967E-49" target="hMkO9IF_Y1Dr7hpX967E-55">
          <mxGeometry relative="1" as="geometry" />
        </mxCell>
        <mxCell id="hMkO9IF_Y1Dr7hpX967E-49" value="User Login" style="rounded=0;whiteSpace=wrap;html=1;fontSize=10;" vertex="1" parent="sQbzJU6BTs8ZrNbQ2yf6-6">
          <mxGeometry x="57.5" y="140" width="55" height="20" as="geometry" />
        </mxCell>
        <mxCell id="hMkO9IF_Y1Dr7hpX967E-56" style="edgeStyle=orthogonalEdgeStyle;rounded=0;orthogonalLoop=1;jettySize=auto;html=1;exitX=0;exitY=0.5;exitDx=0;exitDy=0;entryX=0.5;entryY=0;entryDx=0;entryDy=0;fillColor=#d5e8d4;strokeColor=#82b366;" edge="1" parent="sQbzJU6BTs8ZrNbQ2yf6-6" source="hMkO9IF_Y1Dr7hpX967E-55" target="hMkO9IF_Y1Dr7hpX967E-44">
          <mxGeometry relative="1" as="geometry" />
        </mxCell>
        <mxCell id="hMkO9IF_Y1Dr7hpX967E-57" style="edgeStyle=orthogonalEdgeStyle;rounded=0;orthogonalLoop=1;jettySize=auto;html=1;exitX=1;exitY=0.5;exitDx=0;exitDy=0;entryX=0.5;entryY=0;entryDx=0;entryDy=0;fillColor=#d5e8d4;strokeColor=#82b366;" edge="1" parent="sQbzJU6BTs8ZrNbQ2yf6-6" source="hMkO9IF_Y1Dr7hpX967E-55" target="hMkO9IF_Y1Dr7hpX967E-43">
          <mxGeometry relative="1" as="geometry" />
        </mxCell>
        <mxCell id="hMkO9IF_Y1Dr7hpX967E-55" value="" style="rhombus;whiteSpace=wrap;html=1;" vertex="1" parent="sQbzJU6BTs8ZrNbQ2yf6-6">
          <mxGeometry x="75" y="180" width="20" height="20" as="geometry" />
        </mxCell>
        <mxCell id="hMkO9IF_Y1Dr7hpX967E-89" style="edgeStyle=orthogonalEdgeStyle;rounded=0;orthogonalLoop=1;jettySize=auto;html=1;entryX=0.5;entryY=0;entryDx=0;entryDy=0;fillColor=#d5e8d4;strokeColor=#82b366;" edge="1" parent="sQbzJU6BTs8ZrNbQ2yf6-6" source="sQbzJU6BTs8ZrNbQ2yf6-18" target="sQbzJU6BTs8ZrNbQ2yf6-22">
          <mxGeometry relative="1" as="geometry">
            <Array as="points">
              <mxPoint x="43" y="330" />
              <mxPoint x="85" y="330" />
            </Array>
          </mxGeometry>
        </mxCell>
        <mxCell id="hMkO9IF_Y1Dr7hpX967E-91" style="edgeStyle=orthogonalEdgeStyle;rounded=0;orthogonalLoop=1;jettySize=auto;html=1;entryX=0.5;entryY=0;entryDx=0;entryDy=0;fillColor=#d5e8d4;strokeColor=#82b366;" edge="1" parent="sQbzJU6BTs8ZrNbQ2yf6-6" source="sQbzJU6BTs8ZrNbQ2yf6-18" target="sQbzJU6BTs8ZrNbQ2yf6-19">
          <mxGeometry relative="1" as="geometry">
            <Array as="points">
              <mxPoint x="30" y="290" />
            </Array>
          </mxGeometry>
        </mxCell>
        <mxCell id="hMkO9IF_Y1Dr7hpX967E-161" style="edgeStyle=orthogonalEdgeStyle;rounded=0;orthogonalLoop=1;jettySize=auto;html=1;exitX=1;exitY=1;exitDx=0;exitDy=0;entryX=0.5;entryY=0;entryDx=0;entryDy=0;fillColor=#d5e8d4;strokeColor=#82b366;" edge="1" parent="sQbzJU6BTs8ZrNbQ2yf6-6" source="sQbzJU6BTs8ZrNbQ2yf6-18" target="sQbzJU6BTs8ZrNbQ2yf6-26">
          <mxGeometry relative="1" as="geometry">
            <Array as="points">
              <mxPoint x="130" y="280" />
              <mxPoint x="130" y="540" />
              <mxPoint x="98" y="540" />
              <mxPoint x="98" y="620" />
            </Array>
          </mxGeometry>
        </mxCell>
        <mxCell id="hMkO9IF_Y1Dr7hpX967E-169" style="edgeStyle=orthogonalEdgeStyle;rounded=0;orthogonalLoop=1;jettySize=auto;html=1;exitX=1;exitY=0;exitDx=0;exitDy=0;entryX=0.75;entryY=0;entryDx=0;entryDy=0;fillColor=#d5e8d4;strokeColor=#82b366;" edge="1" parent="sQbzJU6BTs8ZrNbQ2yf6-6" source="sQbzJU6BTs8ZrNbQ2yf6-18" target="hMkO9IF_Y1Dr7hpX967E-118">
          <mxGeometry relative="1" as="geometry">
            <Array as="points">
              <mxPoint x="70" y="270" />
              <mxPoint x="156" y="270" />
            </Array>
          </mxGeometry>
        </mxCell>
        <mxCell id="sQbzJU6BTs8ZrNbQ2yf6-18" value="&lt;p style=&quot;line-height: 100%;&quot;&gt;&lt;font style=&quot;font-size: 9px;&quot;&gt;User Account&lt;/font&gt;&lt;/p&gt;" style="rounded=0;whiteSpace=wrap;html=1;fontSize=10;" parent="sQbzJU6BTs8ZrNbQ2yf6-6" vertex="1">
          <mxGeometry x="15" y="260" width="55" height="20" as="geometry" />
        </mxCell>
        <mxCell id="hMkO9IF_Y1Dr7hpX967E-128" style="edgeStyle=orthogonalEdgeStyle;rounded=0;orthogonalLoop=1;jettySize=auto;html=1;entryX=0.5;entryY=0;entryDx=0;entryDy=0;fillColor=#d5e8d4;strokeColor=#82b366;" edge="1" parent="sQbzJU6BTs8ZrNbQ2yf6-6" source="sQbzJU6BTs8ZrNbQ2yf6-22" target="sQbzJU6BTs8ZrNbQ2yf6-63">
          <mxGeometry relative="1" as="geometry" />
        </mxCell>
        <mxCell id="hMkO9IF_Y1Dr7hpX967E-168" style="edgeStyle=orthogonalEdgeStyle;rounded=0;orthogonalLoop=1;jettySize=auto;html=1;exitX=1;exitY=0.5;exitDx=0;exitDy=0;entryX=0.75;entryY=0;entryDx=0;entryDy=0;fillColor=#d5e8d4;strokeColor=#82b366;" edge="1" parent="sQbzJU6BTs8ZrNbQ2yf6-6" source="sQbzJU6BTs8ZrNbQ2yf6-22" target="sQbzJU6BTs8ZrNbQ2yf6-42">
          <mxGeometry relative="1" as="geometry">
            <Array as="points">
              <mxPoint x="113" y="370" />
              <mxPoint x="120" y="370" />
              <mxPoint x="120" y="460" />
              <mxPoint x="44" y="460" />
            </Array>
          </mxGeometry>
        </mxCell>
        <mxCell id="hMkO9IF_Y1Dr7hpX967E-221" style="edgeStyle=orthogonalEdgeStyle;rounded=0;orthogonalLoop=1;jettySize=auto;html=1;exitX=0.75;exitY=0;exitDx=0;exitDy=0;entryX=0.75;entryY=1;entryDx=0;entryDy=0;fillColor=#d5e8d4;strokeColor=#82b366;" edge="1" parent="sQbzJU6BTs8ZrNbQ2yf6-6" source="sQbzJU6BTs8ZrNbQ2yf6-22" target="hMkO9IF_Y1Dr7hpX967E-220">
          <mxGeometry relative="1" as="geometry" />
        </mxCell>
        <mxCell id="sQbzJU6BTs8ZrNbQ2yf6-22" value="&lt;p style=&quot;line-height: 100%; font-size: 9px;&quot;&gt;&lt;font style=&quot;font-size: 9px;&quot;&gt;Personalized Feed&lt;/font&gt;&lt;/p&gt;" style="rounded=0;whiteSpace=wrap;html=1;fontSize=10;" parent="sQbzJU6BTs8ZrNbQ2yf6-6" vertex="1">
          <mxGeometry x="57.5" y="350" width="55" height="20" as="geometry" />
        </mxCell>
        <mxCell id="hMkO9IF_Y1Dr7hpX967E-123" style="edgeStyle=orthogonalEdgeStyle;rounded=0;orthogonalLoop=1;jettySize=auto;html=1;fillColor=#d5e8d4;strokeColor=#82b366;" edge="1" parent="sQbzJU6BTs8ZrNbQ2yf6-6" source="sQbzJU6BTs8ZrNbQ2yf6-19">
          <mxGeometry relative="1" as="geometry">
            <mxPoint x="30.000000000000114" y="410.0000000000002" as="targetPoint" />
          </mxGeometry>
        </mxCell>
        <mxCell id="sQbzJU6BTs8ZrNbQ2yf6-19" value="Search" style="rounded=0;whiteSpace=wrap;html=1;fontSize=10;" parent="sQbzJU6BTs8ZrNbQ2yf6-6" vertex="1">
          <mxGeometry x="2.5" y="350" width="55" height="20" as="geometry" />
        </mxCell>
        <mxCell id="hMkO9IF_Y1Dr7hpX967E-167" style="edgeStyle=orthogonalEdgeStyle;rounded=0;orthogonalLoop=1;jettySize=auto;html=1;exitX=0.5;exitY=1;exitDx=0;exitDy=0;entryX=0.5;entryY=0;entryDx=0;entryDy=0;fillColor=#d5e8d4;strokeColor=#82b366;" edge="1" parent="sQbzJU6BTs8ZrNbQ2yf6-6" source="sQbzJU6BTs8ZrNbQ2yf6-63" target="sQbzJU6BTs8ZrNbQ2yf6-42">
          <mxGeometry relative="1" as="geometry">
            <Array as="points">
              <mxPoint x="85" y="440" />
              <mxPoint x="30" y="440" />
            </Array>
          </mxGeometry>
        </mxCell>
        <mxCell id="sQbzJU6BTs8ZrNbQ2yf6-63" value="Notification" style="rounded=0;whiteSpace=wrap;html=1;fontSize=10;" parent="sQbzJU6BTs8ZrNbQ2yf6-6" vertex="1">
          <mxGeometry x="57.5" y="410" width="55" height="20" as="geometry" />
        </mxCell>
        <mxCell id="hMkO9IF_Y1Dr7hpX967E-132" style="edgeStyle=orthogonalEdgeStyle;rounded=0;orthogonalLoop=1;jettySize=auto;html=1;entryX=0.5;entryY=0;entryDx=0;entryDy=0;fillColor=#dae8fc;strokeColor=#6c8ebf;" edge="1" parent="sQbzJU6BTs8ZrNbQ2yf6-6" source="sQbzJU6BTs8ZrNbQ2yf6-61" target="hMkO9IF_Y1Dr7hpX967E-130">
          <mxGeometry relative="1" as="geometry" />
        </mxCell>
        <mxCell id="sQbzJU6BTs8ZrNbQ2yf6-61" value="&lt;p style=&quot;line-height: 100%;&quot;&gt;&lt;font style=&quot;font-size: 9px;&quot;&gt;Content Viewer&lt;/font&gt;&lt;/p&gt;" style="rounded=0;whiteSpace=wrap;html=1;fontSize=10;" parent="sQbzJU6BTs8ZrNbQ2yf6-6" vertex="1">
          <mxGeometry x="2.5" y="640" width="55" height="20" as="geometry" />
        </mxCell>
        <mxCell id="hMkO9IF_Y1Dr7hpX967E-122" style="edgeStyle=orthogonalEdgeStyle;rounded=0;orthogonalLoop=1;jettySize=auto;html=1;entryX=0.5;entryY=0;entryDx=0;entryDy=0;fillColor=#d5e8d4;strokeColor=#82b366;" edge="1" parent="sQbzJU6BTs8ZrNbQ2yf6-6" source="hMkO9IF_Y1Dr7hpX967E-118" target="sQbzJU6BTs8ZrNbQ2yf6-61">
          <mxGeometry relative="1" as="geometry">
            <Array as="points">
              <mxPoint x="70" y="570" />
              <mxPoint x="70" y="620" />
              <mxPoint x="30" y="620" />
            </Array>
          </mxGeometry>
        </mxCell>
        <mxCell id="hMkO9IF_Y1Dr7hpX967E-118" value="&lt;font size=&quot;1&quot;&gt;Collections&lt;/font&gt;" style="rounded=0;whiteSpace=wrap;html=1;fontSize=10;" vertex="1" parent="sQbzJU6BTs8ZrNbQ2yf6-6">
          <mxGeometry x="115" y="560" width="55" height="20" as="geometry" />
        </mxCell>
        <mxCell id="hMkO9IF_Y1Dr7hpX967E-170" style="edgeStyle=orthogonalEdgeStyle;rounded=0;orthogonalLoop=1;jettySize=auto;html=1;exitX=1;exitY=1;exitDx=0;exitDy=0;entryX=0.5;entryY=0;entryDx=0;entryDy=0;fillColor=#d5e8d4;strokeColor=#82b366;" edge="1" parent="sQbzJU6BTs8ZrNbQ2yf6-6" source="sQbzJU6BTs8ZrNbQ2yf6-42" target="hMkO9IF_Y1Dr7hpX967E-118">
          <mxGeometry relative="1" as="geometry">
            <Array as="points">
              <mxPoint x="143" y="510" />
            </Array>
          </mxGeometry>
        </mxCell>
        <mxCell id="sQbzJU6BTs8ZrNbQ2yf6-42" value="Rental" style="rounded=0;whiteSpace=wrap;html=1;fontSize=10;" parent="sQbzJU6BTs8ZrNbQ2yf6-6" vertex="1">
          <mxGeometry x="2.5" y="490" width="55" height="20" as="geometry" />
        </mxCell>
        <mxCell id="hMkO9IF_Y1Dr7hpX967E-166" style="edgeStyle=orthogonalEdgeStyle;rounded=0;orthogonalLoop=1;jettySize=auto;html=1;exitX=0.25;exitY=1;exitDx=0;exitDy=0;entryX=0.25;entryY=0;entryDx=0;entryDy=0;fillColor=#d5e8d4;strokeColor=#82b366;" edge="1" parent="sQbzJU6BTs8ZrNbQ2yf6-6" source="hMkO9IF_Y1Dr7hpX967E-124" target="sQbzJU6BTs8ZrNbQ2yf6-42">
          <mxGeometry relative="1" as="geometry" />
        </mxCell>
        <mxCell id="hMkO9IF_Y1Dr7hpX967E-239" style="edgeStyle=orthogonalEdgeStyle;rounded=0;orthogonalLoop=1;jettySize=auto;html=1;exitX=0.75;exitY=1;exitDx=0;exitDy=0;entryX=1;entryY=0;entryDx=0;entryDy=0;fillColor=#d5e8d4;strokeColor=#82b366;" edge="1" parent="sQbzJU6BTs8ZrNbQ2yf6-6" source="hMkO9IF_Y1Dr7hpX967E-124" target="hMkO9IF_Y1Dr7hpX967E-223">
          <mxGeometry relative="1" as="geometry">
            <Array as="points">
              <mxPoint x="44" y="450" />
              <mxPoint x="80" y="450" />
              <mxPoint x="80" y="530" />
            </Array>
          </mxGeometry>
        </mxCell>
        <mxCell id="hMkO9IF_Y1Dr7hpX967E-124" value="Results" style="rounded=0;whiteSpace=wrap;html=1;fontSize=10;" vertex="1" parent="sQbzJU6BTs8ZrNbQ2yf6-6">
          <mxGeometry x="2.5" y="410" width="55" height="20" as="geometry" />
        </mxCell>
        <mxCell id="hMkO9IF_Y1Dr7hpX967E-130" value="" style="ellipse;html=1;shape=endState;fillColor=#000000;strokeColor=#ff0000;" vertex="1" parent="sQbzJU6BTs8ZrNbQ2yf6-6">
          <mxGeometry x="20" y="690" width="20" height="20" as="geometry" />
        </mxCell>
        <mxCell id="hMkO9IF_Y1Dr7hpX967E-141" style="edgeStyle=orthogonalEdgeStyle;rounded=0;orthogonalLoop=1;jettySize=auto;html=1;entryX=0.5;entryY=0;entryDx=0;entryDy=0;fillColor=#dae8fc;strokeColor=#6c8ebf;" edge="1" parent="sQbzJU6BTs8ZrNbQ2yf6-6" source="sQbzJU6BTs8ZrNbQ2yf6-26" target="hMkO9IF_Y1Dr7hpX967E-131">
          <mxGeometry relative="1" as="geometry" />
        </mxCell>
        <mxCell id="sQbzJU6BTs8ZrNbQ2yf6-26" value="Support" style="rounded=0;whiteSpace=wrap;html=1;fontSize=10;" parent="sQbzJU6BTs8ZrNbQ2yf6-6" vertex="1">
          <mxGeometry x="70" y="630" width="55" height="20" as="geometry" />
        </mxCell>
        <mxCell id="hMkO9IF_Y1Dr7hpX967E-131" value="" style="ellipse;html=1;shape=endState;fillColor=#000000;strokeColor=#ff0000;" vertex="1" parent="sQbzJU6BTs8ZrNbQ2yf6-6">
          <mxGeometry x="87.5" y="690" width="20" height="20" as="geometry" />
        </mxCell>
        <mxCell id="hMkO9IF_Y1Dr7hpX967E-204" value="Admin" style="text;html=1;align=center;verticalAlign=middle;whiteSpace=wrap;rounded=0;" vertex="1" parent="sQbzJU6BTs8ZrNbQ2yf6-6">
          <mxGeometry x="100" y="90" width="60" height="30" as="geometry" />
        </mxCell>
        <mxCell id="hMkO9IF_Y1Dr7hpX967E-205" value="User" style="text;html=1;align=center;verticalAlign=middle;whiteSpace=wrap;rounded=0;" vertex="1" parent="sQbzJU6BTs8ZrNbQ2yf6-6">
          <mxGeometry x="40" y="110" width="60" height="30" as="geometry" />
        </mxCell>
        <mxCell id="hMkO9IF_Y1Dr7hpX967E-206" value="registered user" style="text;html=1;align=center;verticalAlign=middle;whiteSpace=wrap;rounded=0;" vertex="1" parent="sQbzJU6BTs8ZrNbQ2yf6-6">
          <mxGeometry x="27.5" y="170" width="42.5" height="20" as="geometry" />
        </mxCell>
        <mxCell id="hMkO9IF_Y1Dr7hpX967E-209" value="unregistered user" style="text;html=1;align=center;verticalAlign=middle;whiteSpace=wrap;rounded=0;" vertex="1" parent="sQbzJU6BTs8ZrNbQ2yf6-6">
          <mxGeometry x="106.25" y="170" width="42.5" height="20" as="geometry" />
        </mxCell>
        <mxCell id="hMkO9IF_Y1Dr7hpX967E-220" value="&lt;p style=&quot;line-height: 100%; font-size: 9px;&quot;&gt;Report&lt;/p&gt;" style="rounded=0;whiteSpace=wrap;html=1;fontSize=10;" vertex="1" parent="sQbzJU6BTs8ZrNbQ2yf6-6">
          <mxGeometry x="57.5" y="300" width="55" height="20" as="geometry" />
        </mxCell>
        <mxCell id="hMkO9IF_Y1Dr7hpX967E-242" style="edgeStyle=orthogonalEdgeStyle;rounded=0;orthogonalLoop=1;jettySize=auto;html=1;entryX=0.5;entryY=0;entryDx=0;entryDy=0;" edge="1" parent="sQbzJU6BTs8ZrNbQ2yf6-6" source="hMkO9IF_Y1Dr7hpX967E-223" target="hMkO9IF_Y1Dr7hpX967E-241">
          <mxGeometry relative="1" as="geometry" />
        </mxCell>
        <mxCell id="hMkO9IF_Y1Dr7hpX967E-223" value="&lt;p style=&quot;line-height: 100%; font-size: 9px;&quot;&gt;Request&lt;/p&gt;" style="rounded=0;whiteSpace=wrap;html=1;fontSize=10;" vertex="1" parent="sQbzJU6BTs8ZrNbQ2yf6-6">
          <mxGeometry x="2.5" y="530" width="55" height="20" as="geometry" />
        </mxCell>
        <mxCell id="hMkO9IF_Y1Dr7hpX967E-241" value="" style="ellipse;html=1;shape=endState;fillColor=#000000;strokeColor=#ff0000;" vertex="1" parent="sQbzJU6BTs8ZrNbQ2yf6-6">
          <mxGeometry x="20" y="580" width="20" height="20" as="geometry" />
        </mxCell>
        <mxCell id="hMkO9IF_Y1Dr7hpX967E-54" style="edgeStyle=orthogonalEdgeStyle;rounded=0;orthogonalLoop=1;jettySize=auto;html=1;entryX=0;entryY=0.5;entryDx=0;entryDy=0;fillColor=#d5e8d4;strokeColor=#82b366;" edge="1" parent="sQbzJU6BTs8ZrNbQ2yf6-5" source="hMkO9IF_Y1Dr7hpX967E-47" target="hMkO9IF_Y1Dr7hpX967E-50">
          <mxGeometry relative="1" as="geometry" />
        </mxCell>
        <mxCell id="hMkO9IF_Y1Dr7hpX967E-67" style="edgeStyle=orthogonalEdgeStyle;rounded=0;orthogonalLoop=1;jettySize=auto;html=1;entryX=0;entryY=0.5;entryDx=0;entryDy=0;fillColor=#f8cecc;strokeColor=#b85450;" edge="1" parent="sQbzJU6BTs8ZrNbQ2yf6-5" source="hMkO9IF_Y1Dr7hpX967E-43" target="sQbzJU6BTs8ZrNbQ2yf6-21">
          <mxGeometry relative="1" as="geometry" />
        </mxCell>
        <mxCell id="hMkO9IF_Y1Dr7hpX967E-71" style="edgeStyle=orthogonalEdgeStyle;rounded=0;orthogonalLoop=1;jettySize=auto;html=1;exitX=1;exitY=0.5;exitDx=0;exitDy=0;entryX=0.5;entryY=0;entryDx=0;entryDy=0;fillColor=#f8cecc;strokeColor=#b85450;" edge="1" parent="sQbzJU6BTs8ZrNbQ2yf6-5" source="hMkO9IF_Y1Dr7hpX967E-59" target="sQbzJU6BTs8ZrNbQ2yf6-21">
          <mxGeometry relative="1" as="geometry" />
        </mxCell>
        <mxCell id="hMkO9IF_Y1Dr7hpX967E-73" style="edgeStyle=orthogonalEdgeStyle;rounded=0;orthogonalLoop=1;jettySize=auto;html=1;exitX=0.5;exitY=1;exitDx=0;exitDy=0;entryX=0;entryY=1;entryDx=0;entryDy=0;fillColor=#f8cecc;strokeColor=#b85450;" edge="1" parent="sQbzJU6BTs8ZrNbQ2yf6-5" source="hMkO9IF_Y1Dr7hpX967E-44" target="sQbzJU6BTs8ZrNbQ2yf6-21">
          <mxGeometry relative="1" as="geometry">
            <Array as="points">
              <mxPoint x="43" y="260" />
              <mxPoint x="449" y="260" />
            </Array>
          </mxGeometry>
        </mxCell>
        <mxCell id="hMkO9IF_Y1Dr7hpX967E-80" style="edgeStyle=orthogonalEdgeStyle;rounded=0;orthogonalLoop=1;jettySize=auto;html=1;entryX=1;entryY=0.5;entryDx=0;entryDy=0;fillColor=#d5e8d4;strokeColor=#82b366;" edge="1" parent="sQbzJU6BTs8ZrNbQ2yf6-5" source="hMkO9IF_Y1Dr7hpX967E-78" target="hMkO9IF_Y1Dr7hpX967E-50">
          <mxGeometry relative="1" as="geometry">
            <Array as="points">
              <mxPoint x="560" y="280" />
              <mxPoint x="560" y="130" />
            </Array>
          </mxGeometry>
        </mxCell>
        <mxCell id="hMkO9IF_Y1Dr7hpX967E-81" style="edgeStyle=orthogonalEdgeStyle;rounded=0;orthogonalLoop=1;jettySize=auto;html=1;entryX=1;entryY=0.5;entryDx=0;entryDy=0;exitX=0.5;exitY=0;exitDx=0;exitDy=0;fillColor=#d5e8d4;strokeColor=#82b366;" edge="1" parent="sQbzJU6BTs8ZrNbQ2yf6-5" source="hMkO9IF_Y1Dr7hpX967E-78" target="hMkO9IF_Y1Dr7hpX967E-49">
          <mxGeometry relative="1" as="geometry">
            <mxPoint x="540" y="280" as="sourcePoint" />
            <Array as="points">
              <mxPoint x="540" y="270" />
              <mxPoint x="540" y="150" />
              <mxPoint x="140" y="150" />
              <mxPoint x="140" y="170" />
            </Array>
          </mxGeometry>
        </mxCell>
        <mxCell id="hMkO9IF_Y1Dr7hpX967E-99" style="edgeStyle=orthogonalEdgeStyle;rounded=0;orthogonalLoop=1;jettySize=auto;html=1;exitX=0.5;exitY=1;exitDx=0;exitDy=0;fillColor=#d5e8d4;strokeColor=#82b366;" edge="1" parent="sQbzJU6BTs8ZrNbQ2yf6-5" source="hMkO9IF_Y1Dr7hpX967E-82">
          <mxGeometry relative="1" as="geometry">
            <mxPoint x="270" y="300" as="targetPoint" />
            <Array as="points">
              <mxPoint x="370" y="290" />
              <mxPoint x="370" y="300" />
            </Array>
          </mxGeometry>
        </mxCell>
        <mxCell id="hMkO9IF_Y1Dr7hpX967E-101" style="edgeStyle=orthogonalEdgeStyle;rounded=0;orthogonalLoop=1;jettySize=auto;html=1;entryX=0;entryY=0;entryDx=0;entryDy=0;fillColor=#f8cecc;strokeColor=#b85450;" edge="1" parent="sQbzJU6BTs8ZrNbQ2yf6-5" source="hMkO9IF_Y1Dr7hpX967E-60" target="sQbzJU6BTs8ZrNbQ2yf6-21">
          <mxGeometry relative="1" as="geometry">
            <Array as="points">
              <mxPoint x="230" y="220" />
              <mxPoint x="449" y="220" />
            </Array>
          </mxGeometry>
        </mxCell>
        <mxCell id="hMkO9IF_Y1Dr7hpX967E-152" style="edgeStyle=orthogonalEdgeStyle;rounded=0;orthogonalLoop=1;jettySize=auto;html=1;exitX=0.75;exitY=1;exitDx=0;exitDy=0;entryX=0;entryY=0.5;entryDx=0;entryDy=0;fillColor=#f8cecc;strokeColor=#b85450;" edge="1" parent="sQbzJU6BTs8ZrNbQ2yf6-5" source="sQbzJU6BTs8ZrNbQ2yf6-19" target="sQbzJU6BTs8ZrNbQ2yf6-23">
          <mxGeometry relative="1" as="geometry">
            <Array as="points">
              <mxPoint x="44" y="400" />
            </Array>
          </mxGeometry>
        </mxCell>
        <mxCell id="hMkO9IF_Y1Dr7hpX967E-153" style="edgeStyle=orthogonalEdgeStyle;rounded=0;orthogonalLoop=1;jettySize=auto;html=1;exitX=0;exitY=1;exitDx=0;exitDy=0;entryX=0.75;entryY=0;entryDx=0;entryDy=0;fillColor=#f8cecc;strokeColor=#b85450;" edge="1" parent="sQbzJU6BTs8ZrNbQ2yf6-5" source="sQbzJU6BTs8ZrNbQ2yf6-23" target="hMkO9IF_Y1Dr7hpX967E-124">
          <mxGeometry relative="1" as="geometry">
            <Array as="points">
              <mxPoint x="44" y="410" />
            </Array>
          </mxGeometry>
        </mxCell>
        <mxCell id="hMkO9IF_Y1Dr7hpX967E-155" style="edgeStyle=orthogonalEdgeStyle;rounded=0;orthogonalLoop=1;jettySize=auto;html=1;exitX=1;exitY=0.5;exitDx=0;exitDy=0;entryX=0;entryY=0.5;entryDx=0;entryDy=0;fillColor=#f8cecc;strokeColor=#b85450;" edge="1" parent="sQbzJU6BTs8ZrNbQ2yf6-5" source="sQbzJU6BTs8ZrNbQ2yf6-42" target="hMkO9IF_Y1Dr7hpX967E-8">
          <mxGeometry relative="1" as="geometry" />
        </mxCell>
        <mxCell id="hMkO9IF_Y1Dr7hpX967E-162" style="edgeStyle=orthogonalEdgeStyle;rounded=0;orthogonalLoop=1;jettySize=auto;html=1;exitX=1;exitY=0.5;exitDx=0;exitDy=0;entryX=0;entryY=0.5;entryDx=0;entryDy=0;fillColor=#f8cecc;strokeColor=#b85450;" edge="1" parent="sQbzJU6BTs8ZrNbQ2yf6-5" source="sQbzJU6BTs8ZrNbQ2yf6-26" target="hMkO9IF_Y1Dr7hpX967E-94">
          <mxGeometry relative="1" as="geometry">
            <Array as="points">
              <mxPoint x="200" y="660" />
              <mxPoint x="200" y="680" />
            </Array>
          </mxGeometry>
        </mxCell>
        <mxCell id="hMkO9IF_Y1Dr7hpX967E-172" style="edgeStyle=orthogonalEdgeStyle;rounded=0;orthogonalLoop=1;jettySize=auto;html=1;entryX=1;entryY=0.5;entryDx=0;entryDy=0;fillColor=#f8cecc;strokeColor=#b85450;" edge="1" parent="sQbzJU6BTs8ZrNbQ2yf6-5" source="hMkO9IF_Y1Dr7hpX967E-133" target="hMkO9IF_Y1Dr7hpX967E-118">
          <mxGeometry relative="1" as="geometry" />
        </mxCell>
        <mxCell id="hMkO9IF_Y1Dr7hpX967E-177" style="edgeStyle=orthogonalEdgeStyle;rounded=0;orthogonalLoop=1;jettySize=auto;html=1;entryX=1;entryY=0.5;entryDx=0;entryDy=0;fillColor=#f8cecc;strokeColor=#b85450;" edge="1" parent="sQbzJU6BTs8ZrNbQ2yf6-5" source="hMkO9IF_Y1Dr7hpX967E-173" target="sQbzJU6BTs8ZrNbQ2yf6-22">
          <mxGeometry relative="1" as="geometry">
            <Array as="points">
              <mxPoint x="300" y="660" />
              <mxPoint x="300" y="380" />
            </Array>
          </mxGeometry>
        </mxCell>
        <mxCell id="hMkO9IF_Y1Dr7hpX967E-199" style="edgeStyle=orthogonalEdgeStyle;rounded=0;orthogonalLoop=1;jettySize=auto;html=1;exitX=0;exitY=0.5;exitDx=0;exitDy=0;entryX=1;entryY=0.5;entryDx=0;entryDy=0;fillColor=#f8cecc;strokeColor=#b85450;" edge="1" parent="sQbzJU6BTs8ZrNbQ2yf6-5" source="hMkO9IF_Y1Dr7hpX967E-191" target="sQbzJU6BTs8ZrNbQ2yf6-24">
          <mxGeometry relative="1" as="geometry" />
        </mxCell>
        <mxCell id="hMkO9IF_Y1Dr7hpX967E-202" style="edgeStyle=orthogonalEdgeStyle;rounded=0;orthogonalLoop=1;jettySize=auto;html=1;exitX=1;exitY=0.5;exitDx=0;exitDy=0;fillColor=#f8cecc;strokeColor=#b85450;" edge="1" parent="sQbzJU6BTs8ZrNbQ2yf6-5" source="hMkO9IF_Y1Dr7hpX967E-94" target="hMkO9IF_Y1Dr7hpX967E-191">
          <mxGeometry relative="1" as="geometry" />
        </mxCell>
        <mxCell id="hMkO9IF_Y1Dr7hpX967E-203" style="edgeStyle=orthogonalEdgeStyle;rounded=0;orthogonalLoop=1;jettySize=auto;html=1;exitX=0.75;exitY=0;exitDx=0;exitDy=0;entryX=0.5;entryY=0;entryDx=0;entryDy=0;fillColor=#f8cecc;strokeColor=#b85450;" edge="1" parent="sQbzJU6BTs8ZrNbQ2yf6-5" source="sQbzJU6BTs8ZrNbQ2yf6-19" target="hMkO9IF_Y1Dr7hpX967E-191">
          <mxGeometry relative="1" as="geometry">
            <Array as="points">
              <mxPoint x="44" y="360" />
              <mxPoint x="140" y="360" />
              <mxPoint x="140" y="430" />
              <mxPoint x="421" y="430" />
            </Array>
          </mxGeometry>
        </mxCell>
        <mxCell id="hMkO9IF_Y1Dr7hpX967E-218" style="edgeStyle=orthogonalEdgeStyle;rounded=0;orthogonalLoop=1;jettySize=auto;html=1;exitX=0;exitY=0.5;exitDx=0;exitDy=0;entryX=0.75;entryY=0;entryDx=0;entryDy=0;fillColor=#d5e8d4;strokeColor=#82b366;" edge="1" parent="sQbzJU6BTs8ZrNbQ2yf6-5" source="hMkO9IF_Y1Dr7hpX967E-82" target="sQbzJU6BTs8ZrNbQ2yf6-18">
          <mxGeometry relative="1" as="geometry">
            <Array as="points">
              <mxPoint x="232" y="280" />
              <mxPoint x="232" y="270" />
              <mxPoint x="56" y="270" />
            </Array>
          </mxGeometry>
        </mxCell>
        <mxCell id="hMkO9IF_Y1Dr7hpX967E-222" style="edgeStyle=orthogonalEdgeStyle;rounded=0;orthogonalLoop=1;jettySize=auto;html=1;exitX=1;exitY=0.5;exitDx=0;exitDy=0;entryX=0.25;entryY=0;entryDx=0;entryDy=0;fillColor=#f8cecc;strokeColor=#b85450;" edge="1" parent="sQbzJU6BTs8ZrNbQ2yf6-5" source="hMkO9IF_Y1Dr7hpX967E-220" target="hMkO9IF_Y1Dr7hpX967E-96">
          <mxGeometry relative="1" as="geometry">
            <Array as="points">
              <mxPoint x="194" y="330" />
            </Array>
          </mxGeometry>
        </mxCell>
        <mxCell id="sQbzJU6BTs8ZrNbQ2yf6-7" value="Admin" style="swimlane;startSize=20;html=1;" parent="sQbzJU6BTs8ZrNbQ2yf6-5" vertex="1">
          <mxGeometry x="170" y="20" width="205" height="720" as="geometry" />
        </mxCell>
        <mxCell id="hMkO9IF_Y1Dr7hpX967E-116" style="edgeStyle=orthogonalEdgeStyle;rounded=0;orthogonalLoop=1;jettySize=auto;html=1;exitX=0;exitY=0.5;exitDx=0;exitDy=0;entryX=0.5;entryY=0;entryDx=0;entryDy=0;fillColor=#d5e8d4;strokeColor=#82b366;" edge="1" parent="sQbzJU6BTs8ZrNbQ2yf6-7" source="sQbzJU6BTs8ZrNbQ2yf6-20" target="hMkO9IF_Y1Dr7hpX967E-96">
          <mxGeometry relative="1" as="geometry" />
        </mxCell>
        <mxCell id="hMkO9IF_Y1Dr7hpX967E-225" style="edgeStyle=orthogonalEdgeStyle;rounded=0;orthogonalLoop=1;jettySize=auto;html=1;exitX=0.75;exitY=1;exitDx=0;exitDy=0;entryX=0.25;entryY=0;entryDx=0;entryDy=0;fillColor=#d5e8d4;strokeColor=#82b366;" edge="1" parent="sQbzJU6BTs8ZrNbQ2yf6-7" source="sQbzJU6BTs8ZrNbQ2yf6-20" target="hMkO9IF_Y1Dr7hpX967E-94">
          <mxGeometry relative="1" as="geometry">
            <Array as="points" />
          </mxGeometry>
        </mxCell>
        <mxCell id="sQbzJU6BTs8ZrNbQ2yf6-20" value="&lt;font style=&quot;font-size: 9px;&quot;&gt;Admin&lt;/font&gt;&lt;div style=&quot;line-height: 100%; font-size: 9px;&quot;&gt;Panel&lt;/div&gt;" style="rounded=0;whiteSpace=wrap;html=1;fontSize=10;" parent="sQbzJU6BTs8ZrNbQ2yf6-7" vertex="1">
          <mxGeometry x="47.5" y="280" width="55" height="20" as="geometry" />
        </mxCell>
        <mxCell id="hMkO9IF_Y1Dr7hpX967E-64" style="edgeStyle=orthogonalEdgeStyle;rounded=0;orthogonalLoop=1;jettySize=auto;html=1;exitX=0.5;exitY=1;exitDx=0;exitDy=0;entryX=0.5;entryY=0;entryDx=0;entryDy=0;fillColor=#dae8fc;strokeColor=#6c8ebf;" edge="1" parent="sQbzJU6BTs8ZrNbQ2yf6-7" source="hMkO9IF_Y1Dr7hpX967E-50" target="hMkO9IF_Y1Dr7hpX967E-63">
          <mxGeometry relative="1" as="geometry" />
        </mxCell>
        <mxCell id="hMkO9IF_Y1Dr7hpX967E-50" value="&lt;p style=&quot;line-height: 100%;&quot;&gt;&lt;font style=&quot;font-size: 9px;&quot;&gt;Admin Login&lt;/font&gt;&lt;/p&gt;" style="rounded=0;whiteSpace=wrap;html=1;fontSize=10;" vertex="1" parent="sQbzJU6BTs8ZrNbQ2yf6-7">
          <mxGeometry x="75" y="100" width="55" height="20" as="geometry" />
        </mxCell>
        <mxCell id="hMkO9IF_Y1Dr7hpX967E-59" value="Sign up" style="rounded=0;whiteSpace=wrap;html=1;fontSize=10;" vertex="1" parent="sQbzJU6BTs8ZrNbQ2yf6-7">
          <mxGeometry x="117.5" y="170" width="55" height="20" as="geometry" />
        </mxCell>
        <mxCell id="hMkO9IF_Y1Dr7hpX967E-60" value="Log In" style="rounded=0;whiteSpace=wrap;html=1;fontSize=10;" vertex="1" parent="sQbzJU6BTs8ZrNbQ2yf6-7">
          <mxGeometry x="32.5" y="170" width="55" height="20" as="geometry" />
        </mxCell>
        <mxCell id="hMkO9IF_Y1Dr7hpX967E-61" style="edgeStyle=orthogonalEdgeStyle;rounded=0;orthogonalLoop=1;jettySize=auto;html=1;exitX=0;exitY=0.5;exitDx=0;exitDy=0;entryX=0.5;entryY=0;entryDx=0;entryDy=0;fillColor=#d5e8d4;strokeColor=#82b366;" edge="1" parent="sQbzJU6BTs8ZrNbQ2yf6-7" source="hMkO9IF_Y1Dr7hpX967E-63" target="hMkO9IF_Y1Dr7hpX967E-60">
          <mxGeometry relative="1" as="geometry" />
        </mxCell>
        <mxCell id="hMkO9IF_Y1Dr7hpX967E-62" style="edgeStyle=orthogonalEdgeStyle;rounded=0;orthogonalLoop=1;jettySize=auto;html=1;exitX=1;exitY=0.5;exitDx=0;exitDy=0;entryX=0.5;entryY=0;entryDx=0;entryDy=0;fillColor=#d5e8d4;strokeColor=#82b366;" edge="1" parent="sQbzJU6BTs8ZrNbQ2yf6-7" source="hMkO9IF_Y1Dr7hpX967E-63" target="hMkO9IF_Y1Dr7hpX967E-59">
          <mxGeometry relative="1" as="geometry" />
        </mxCell>
        <mxCell id="hMkO9IF_Y1Dr7hpX967E-63" value="" style="rhombus;whiteSpace=wrap;html=1;" vertex="1" parent="sQbzJU6BTs8ZrNbQ2yf6-7">
          <mxGeometry x="92.5" y="140" width="20" height="20" as="geometry" />
        </mxCell>
        <mxCell id="hMkO9IF_Y1Dr7hpX967E-180" style="edgeStyle=orthogonalEdgeStyle;rounded=0;orthogonalLoop=1;jettySize=auto;html=1;entryX=0.5;entryY=0;entryDx=0;entryDy=0;fillColor=#dae8fc;strokeColor=#6c8ebf;" edge="1" parent="sQbzJU6BTs8ZrNbQ2yf6-7" source="hMkO9IF_Y1Dr7hpX967E-94" target="hMkO9IF_Y1Dr7hpX967E-179">
          <mxGeometry relative="1" as="geometry" />
        </mxCell>
        <mxCell id="hMkO9IF_Y1Dr7hpX967E-94" value="Support Panel" style="rounded=0;whiteSpace=wrap;html=1;fontSize=10;" vertex="1" parent="sQbzJU6BTs8ZrNbQ2yf6-7">
          <mxGeometry x="75" y="650" width="55" height="20" as="geometry" />
        </mxCell>
        <mxCell id="hMkO9IF_Y1Dr7hpX967E-138" style="edgeStyle=orthogonalEdgeStyle;rounded=0;orthogonalLoop=1;jettySize=auto;html=1;entryX=0.5;entryY=0;entryDx=0;entryDy=0;fillColor=#d5e8d4;strokeColor=#82b366;" edge="1" parent="sQbzJU6BTs8ZrNbQ2yf6-7" source="hMkO9IF_Y1Dr7hpX967E-96" target="sQbzJU6BTs8ZrNbQ2yf6-24">
          <mxGeometry relative="1" as="geometry" />
        </mxCell>
        <mxCell id="hMkO9IF_Y1Dr7hpX967E-96" value="Moderation panel" style="rounded=0;whiteSpace=wrap;html=1;fontSize=10;" vertex="1" parent="sQbzJU6BTs8ZrNbQ2yf6-7">
          <mxGeometry x="10" y="320" width="55" height="20" as="geometry" />
        </mxCell>
        <mxCell id="hMkO9IF_Y1Dr7hpX967E-145" style="edgeStyle=orthogonalEdgeStyle;rounded=0;orthogonalLoop=1;jettySize=auto;html=1;exitX=0.5;exitY=1;exitDx=0;exitDy=0;entryX=0.5;entryY=0;entryDx=0;entryDy=0;fillColor=#dae8fc;strokeColor=#6c8ebf;" edge="1" parent="sQbzJU6BTs8ZrNbQ2yf6-7" source="sQbzJU6BTs8ZrNbQ2yf6-24" target="hMkO9IF_Y1Dr7hpX967E-144">
          <mxGeometry relative="1" as="geometry" />
        </mxCell>
        <mxCell id="sQbzJU6BTs8ZrNbQ2yf6-24" value="Stats" style="rounded=0;whiteSpace=wrap;html=1;fontSize=10;" parent="sQbzJU6BTs8ZrNbQ2yf6-7" vertex="1">
          <mxGeometry x="10" y="430" width="55" height="20" as="geometry" />
        </mxCell>
        <mxCell id="hMkO9IF_Y1Dr7hpX967E-238" style="edgeStyle=orthogonalEdgeStyle;rounded=0;orthogonalLoop=1;jettySize=auto;html=1;exitX=0.5;exitY=1;exitDx=0;exitDy=0;entryX=0.5;entryY=0;entryDx=0;entryDy=0;fillColor=#d5e8d4;strokeColor=#82b366;" edge="1" parent="sQbzJU6BTs8ZrNbQ2yf6-7" source="hMkO9IF_Y1Dr7hpX967E-113" target="hMkO9IF_Y1Dr7hpX967E-136">
          <mxGeometry relative="1" as="geometry" />
        </mxCell>
        <mxCell id="hMkO9IF_Y1Dr7hpX967E-113" value="Uploader" style="rounded=0;whiteSpace=wrap;html=1;fontSize=10;" vertex="1" parent="sQbzJU6BTs8ZrNbQ2yf6-7">
          <mxGeometry x="140" y="320" width="55" height="20" as="geometry" />
        </mxCell>
        <mxCell id="hMkO9IF_Y1Dr7hpX967E-234" style="edgeStyle=orthogonalEdgeStyle;rounded=0;orthogonalLoop=1;jettySize=auto;html=1;entryX=0.5;entryY=0;entryDx=0;entryDy=0;fillColor=#d5e8d4;strokeColor=#82b366;" edge="1" parent="sQbzJU6BTs8ZrNbQ2yf6-7" source="hMkO9IF_Y1Dr7hpX967E-136" target="hMkO9IF_Y1Dr7hpX967E-232">
          <mxGeometry relative="1" as="geometry" />
        </mxCell>
        <mxCell id="hMkO9IF_Y1Dr7hpX967E-136" value="Metatags" style="rounded=0;whiteSpace=wrap;html=1;fontSize=10;" vertex="1" parent="sQbzJU6BTs8ZrNbQ2yf6-7">
          <mxGeometry x="140" y="350" width="55" height="20" as="geometry" />
        </mxCell>
        <mxCell id="hMkO9IF_Y1Dr7hpX967E-144" value="" style="ellipse;html=1;shape=endState;fillColor=#000000;strokeColor=#ff0000;" vertex="1" parent="sQbzJU6BTs8ZrNbQ2yf6-7">
          <mxGeometry x="27.5" y="600" width="20" height="20" as="geometry" />
        </mxCell>
        <mxCell id="hMkO9IF_Y1Dr7hpX967E-179" value="" style="ellipse;html=1;shape=endState;fillColor=#000000;strokeColor=#ff0000;" vertex="1" parent="sQbzJU6BTs8ZrNbQ2yf6-7">
          <mxGeometry x="92.5" y="690" width="20" height="20" as="geometry" />
        </mxCell>
        <mxCell id="hMkO9IF_Y1Dr7hpX967E-181" value="" style="ellipse;html=1;shape=endState;fillColor=#000000;strokeColor=#ff0000;" vertex="1" parent="sQbzJU6BTs8ZrNbQ2yf6-7">
          <mxGeometry x="157.5" y="520" width="20" height="20" as="geometry" />
        </mxCell>
        <mxCell id="hMkO9IF_Y1Dr7hpX967E-207" value="registered admin" style="text;html=1;align=center;verticalAlign=middle;whiteSpace=wrap;rounded=0;" vertex="1" parent="sQbzJU6BTs8ZrNbQ2yf6-7">
          <mxGeometry x="22.5" y="140" width="42.5" height="20" as="geometry" />
        </mxCell>
        <mxCell id="hMkO9IF_Y1Dr7hpX967E-208" value="unregistered admin" style="text;html=1;align=center;verticalAlign=middle;whiteSpace=wrap;rounded=0;" vertex="1" parent="sQbzJU6BTs8ZrNbQ2yf6-7">
          <mxGeometry x="146.25" y="140" width="42.5" height="20" as="geometry" />
        </mxCell>
        <mxCell id="hMkO9IF_Y1Dr7hpX967E-233" style="edgeStyle=orthogonalEdgeStyle;rounded=0;orthogonalLoop=1;jettySize=auto;html=1;exitX=0.5;exitY=1;exitDx=0;exitDy=0;entryX=0.5;entryY=0;entryDx=0;entryDy=0;fillColor=#dae8fc;strokeColor=#6c8ebf;" edge="1" parent="sQbzJU6BTs8ZrNbQ2yf6-7" source="hMkO9IF_Y1Dr7hpX967E-232" target="hMkO9IF_Y1Dr7hpX967E-181">
          <mxGeometry relative="1" as="geometry" />
        </mxCell>
        <mxCell id="hMkO9IF_Y1Dr7hpX967E-232" value="Poster" style="rounded=0;whiteSpace=wrap;html=1;fontSize=10;" vertex="1" parent="sQbzJU6BTs8ZrNbQ2yf6-7">
          <mxGeometry x="140" y="450" width="55" height="20" as="geometry" />
        </mxCell>
        <mxCell id="hMkO9IF_Y1Dr7hpX967E-226" value="&lt;p style=&quot;line-height: 100%;&quot;&gt;&lt;font style=&quot;font-size: 9px;&quot;&gt;Request portal&lt;/font&gt;&lt;/p&gt;" style="rounded=0;whiteSpace=wrap;html=1;fontSize=10;" vertex="1" parent="sQbzJU6BTs8ZrNbQ2yf6-7">
          <mxGeometry x="140" y="290" width="55" height="20" as="geometry" />
        </mxCell>
        <mxCell id="hMkO9IF_Y1Dr7hpX967E-227" style="edgeStyle=orthogonalEdgeStyle;rounded=0;orthogonalLoop=1;jettySize=auto;html=1;exitX=1;exitY=0;exitDx=0;exitDy=0;entryX=0.5;entryY=0;entryDx=0;entryDy=0;fillColor=#d5e8d4;strokeColor=#82b366;" edge="1" parent="sQbzJU6BTs8ZrNbQ2yf6-7" source="sQbzJU6BTs8ZrNbQ2yf6-20" target="hMkO9IF_Y1Dr7hpX967E-226">
          <mxGeometry relative="1" as="geometry">
            <Array as="points">
              <mxPoint x="80" y="280" />
              <mxPoint x="80" y="270" />
              <mxPoint x="168" y="270" />
            </Array>
          </mxGeometry>
        </mxCell>
        <mxCell id="hMkO9IF_Y1Dr7hpX967E-228" style="edgeStyle=orthogonalEdgeStyle;rounded=0;orthogonalLoop=1;jettySize=auto;html=1;exitX=0.5;exitY=1;exitDx=0;exitDy=0;entryX=0.5;entryY=0;entryDx=0;entryDy=0;fillColor=#d5e8d4;strokeColor=#82b366;" edge="1" parent="sQbzJU6BTs8ZrNbQ2yf6-7" source="hMkO9IF_Y1Dr7hpX967E-226" target="hMkO9IF_Y1Dr7hpX967E-113">
          <mxGeometry relative="1" as="geometry" />
        </mxCell>
        <mxCell id="sQbzJU6BTs8ZrNbQ2yf6-8" value="Backend" style="swimlane;startSize=20;html=1;" parent="sQbzJU6BTs8ZrNbQ2yf6-5" vertex="1">
          <mxGeometry x="375" y="20" width="215" height="720" as="geometry" />
        </mxCell>
        <mxCell id="hMkO9IF_Y1Dr7hpX967E-183" style="edgeStyle=orthogonalEdgeStyle;rounded=0;orthogonalLoop=1;jettySize=auto;html=1;exitX=1;exitY=0;exitDx=0;exitDy=0;entryX=1;entryY=0.5;entryDx=0;entryDy=0;fillColor=#f8cecc;strokeColor=#b85450;" edge="1" parent="sQbzJU6BTs8ZrNbQ2yf6-8" source="sQbzJU6BTs8ZrNbQ2yf6-23" target="hMkO9IF_Y1Dr7hpX967E-133">
          <mxGeometry relative="1" as="geometry">
            <Array as="points">
              <mxPoint x="165" y="370" />
              <mxPoint x="165" y="570" />
            </Array>
          </mxGeometry>
        </mxCell>
        <mxCell id="hMkO9IF_Y1Dr7hpX967E-201" style="edgeStyle=orthogonalEdgeStyle;rounded=0;orthogonalLoop=1;jettySize=auto;html=1;exitX=0.25;exitY=1;exitDx=0;exitDy=0;entryX=1;entryY=0;entryDx=0;entryDy=0;fillColor=#f8cecc;strokeColor=#b85450;" edge="1" parent="sQbzJU6BTs8ZrNbQ2yf6-8" source="sQbzJU6BTs8ZrNbQ2yf6-23" target="hMkO9IF_Y1Dr7hpX967E-191">
          <mxGeometry relative="1" as="geometry" />
        </mxCell>
        <mxCell id="sQbzJU6BTs8ZrNbQ2yf6-23" value="&lt;p style=&quot;line-height: 100%;&quot;&gt;&lt;font style=&quot;font-size: 9px;&quot;&gt;Library Database&lt;/font&gt;&lt;/p&gt;" style="rounded=0;whiteSpace=wrap;html=1;fontSize=10;" parent="sQbzJU6BTs8ZrNbQ2yf6-8" vertex="1">
          <mxGeometry x="73.75" y="370" width="55" height="20" as="geometry" />
        </mxCell>
        <mxCell id="hMkO9IF_Y1Dr7hpX967E-157" style="edgeStyle=orthogonalEdgeStyle;rounded=0;orthogonalLoop=1;jettySize=auto;html=1;entryX=0.5;entryY=1;entryDx=0;entryDy=0;fillColor=#f8cecc;strokeColor=#b85450;" edge="1" parent="sQbzJU6BTs8ZrNbQ2yf6-8" source="hMkO9IF_Y1Dr7hpX967E-8" target="sQbzJU6BTs8ZrNbQ2yf6-23">
          <mxGeometry relative="1" as="geometry" />
        </mxCell>
        <mxCell id="hMkO9IF_Y1Dr7hpX967E-8" value="Encryption" style="rounded=0;whiteSpace=wrap;html=1;fontSize=10;" vertex="1" parent="sQbzJU6BTs8ZrNbQ2yf6-8">
          <mxGeometry x="73.75" y="490" width="55" height="20" as="geometry" />
        </mxCell>
        <mxCell id="hMkO9IF_Y1Dr7hpX967E-77" style="edgeStyle=orthogonalEdgeStyle;rounded=0;orthogonalLoop=1;jettySize=auto;html=1;entryX=0.5;entryY=0;entryDx=0;entryDy=0;fillColor=#dae8fc;strokeColor=#6c8ebf;" edge="1" parent="sQbzJU6BTs8ZrNbQ2yf6-8" source="sQbzJU6BTs8ZrNbQ2yf6-21" target="hMkO9IF_Y1Dr7hpX967E-76">
          <mxGeometry relative="1" as="geometry" />
        </mxCell>
        <mxCell id="sQbzJU6BTs8ZrNbQ2yf6-21" value="&lt;p style=&quot;line-height: 100%;&quot;&gt;&lt;font style=&quot;font-size: 9px;&quot;&gt;Login Database&lt;/font&gt;&lt;/p&gt;" style="rounded=0;whiteSpace=wrap;html=1;fontSize=10;" parent="sQbzJU6BTs8ZrNbQ2yf6-8" vertex="1">
          <mxGeometry x="73.75" y="210" width="55" height="20" as="geometry" />
        </mxCell>
        <mxCell id="hMkO9IF_Y1Dr7hpX967E-85" style="edgeStyle=orthogonalEdgeStyle;rounded=0;orthogonalLoop=1;jettySize=auto;html=1;fillColor=#dae8fc;strokeColor=#6c8ebf;" edge="1" parent="sQbzJU6BTs8ZrNbQ2yf6-8" source="hMkO9IF_Y1Dr7hpX967E-76" target="hMkO9IF_Y1Dr7hpX967E-78">
          <mxGeometry relative="1" as="geometry" />
        </mxCell>
        <mxCell id="hMkO9IF_Y1Dr7hpX967E-86" style="edgeStyle=orthogonalEdgeStyle;rounded=0;orthogonalLoop=1;jettySize=auto;html=1;exitX=0;exitY=0.5;exitDx=0;exitDy=0;entryX=1;entryY=0.5;entryDx=0;entryDy=0;fillColor=#dae8fc;strokeColor=#6c8ebf;" edge="1" parent="sQbzJU6BTs8ZrNbQ2yf6-8" source="hMkO9IF_Y1Dr7hpX967E-76" target="hMkO9IF_Y1Dr7hpX967E-82">
          <mxGeometry relative="1" as="geometry" />
        </mxCell>
        <mxCell id="hMkO9IF_Y1Dr7hpX967E-76" value="" style="rhombus;whiteSpace=wrap;html=1;" vertex="1" parent="sQbzJU6BTs8ZrNbQ2yf6-8">
          <mxGeometry x="91.25" y="250" width="20" height="20" as="geometry" />
        </mxCell>
        <mxCell id="hMkO9IF_Y1Dr7hpX967E-78" value="" style="rhombus;whiteSpace=wrap;html=1;" vertex="1" parent="sQbzJU6BTs8ZrNbQ2yf6-8">
          <mxGeometry x="155" y="250" width="20" height="20" as="geometry" />
        </mxCell>
        <mxCell id="hMkO9IF_Y1Dr7hpX967E-82" value="" style="rhombus;whiteSpace=wrap;html=1;" vertex="1" parent="sQbzJU6BTs8ZrNbQ2yf6-8">
          <mxGeometry x="20" y="250" width="20" height="20" as="geometry" />
        </mxCell>
        <mxCell id="hMkO9IF_Y1Dr7hpX967E-176" style="edgeStyle=orthogonalEdgeStyle;rounded=0;orthogonalLoop=1;jettySize=auto;html=1;entryX=0.5;entryY=0;entryDx=0;entryDy=0;fillColor=#f8cecc;strokeColor=#b85450;" edge="1" parent="sQbzJU6BTs8ZrNbQ2yf6-8" source="hMkO9IF_Y1Dr7hpX967E-133" target="hMkO9IF_Y1Dr7hpX967E-173">
          <mxGeometry relative="1" as="geometry" />
        </mxCell>
        <mxCell id="hMkO9IF_Y1Dr7hpX967E-200" style="edgeStyle=orthogonalEdgeStyle;rounded=0;orthogonalLoop=1;jettySize=auto;html=1;exitX=0.75;exitY=0;exitDx=0;exitDy=0;entryX=1;entryY=0.5;entryDx=0;entryDy=0;fillColor=#f8cecc;strokeColor=#b85450;" edge="1" parent="sQbzJU6BTs8ZrNbQ2yf6-8" source="hMkO9IF_Y1Dr7hpX967E-133" target="hMkO9IF_Y1Dr7hpX967E-191">
          <mxGeometry relative="1" as="geometry">
            <Array as="points">
              <mxPoint x="155" y="560" />
              <mxPoint x="155" y="440" />
            </Array>
          </mxGeometry>
        </mxCell>
        <mxCell id="hMkO9IF_Y1Dr7hpX967E-133" value="&lt;p style=&quot;line-height: 100%;&quot;&gt;&lt;font style=&quot;font-size: 9px;&quot;&gt;User Database&lt;/font&gt;&lt;/p&gt;" style="rounded=0;whiteSpace=wrap;html=1;fontSize=10;" vertex="1" parent="sQbzJU6BTs8ZrNbQ2yf6-8">
          <mxGeometry x="73.75" y="560" width="55" height="20" as="geometry" />
        </mxCell>
        <mxCell id="hMkO9IF_Y1Dr7hpX967E-173" value="&lt;p style=&quot;line-height: 100%;&quot;&gt;&lt;font size=&quot;1&quot;&gt;Recommendation&lt;/font&gt;&lt;/p&gt;" style="rounded=0;whiteSpace=wrap;html=1;fontSize=10;" vertex="1" parent="sQbzJU6BTs8ZrNbQ2yf6-8">
          <mxGeometry x="58.13" y="630" width="86.25" height="20" as="geometry" />
        </mxCell>
        <mxCell id="hMkO9IF_Y1Dr7hpX967E-191" value="&lt;p style=&quot;line-height: 100%;&quot;&gt;&lt;font style=&quot;font-size: 9px;&quot;&gt;Stats Analyzer&lt;/font&gt;&lt;/p&gt;" style="rounded=0;whiteSpace=wrap;html=1;fontSize=10;" vertex="1" parent="sQbzJU6BTs8ZrNbQ2yf6-8">
          <mxGeometry x="18.749999999999993" y="430" width="55" height="20" as="geometry" />
        </mxCell>
        <mxCell id="hMkO9IF_Y1Dr7hpX967E-210" value="Admin" style="text;html=1;align=center;verticalAlign=middle;whiteSpace=wrap;rounded=0;" vertex="1" parent="sQbzJU6BTs8ZrNbQ2yf6-8">
          <mxGeometry y="260" width="60" height="30" as="geometry" />
        </mxCell>
        <mxCell id="hMkO9IF_Y1Dr7hpX967E-211" value="User" style="text;html=1;align=center;verticalAlign=middle;whiteSpace=wrap;rounded=0;" vertex="1" parent="sQbzJU6BTs8ZrNbQ2yf6-8">
          <mxGeometry x="-20" y="240" width="60" height="30" as="geometry" />
        </mxCell>
        <mxCell id="hMkO9IF_Y1Dr7hpX967E-212" value="login" style="text;html=1;align=center;verticalAlign=middle;whiteSpace=wrap;rounded=0;" vertex="1" parent="sQbzJU6BTs8ZrNbQ2yf6-8">
          <mxGeometry x="45" y="250" width="60" height="30" as="geometry" />
        </mxCell>
        <mxCell id="hMkO9IF_Y1Dr7hpX967E-213" value="Sign up" style="text;html=1;align=center;verticalAlign=middle;whiteSpace=wrap;rounded=0;" vertex="1" parent="sQbzJU6BTs8ZrNbQ2yf6-8">
          <mxGeometry x="105" y="250" width="60" height="30" as="geometry" />
        </mxCell>
        <mxCell id="hMkO9IF_Y1Dr7hpX967E-214" value="User" style="text;html=1;align=center;verticalAlign=middle;whiteSpace=wrap;rounded=0;" vertex="1" parent="sQbzJU6BTs8ZrNbQ2yf6-8">
          <mxGeometry x="115" y="120" width="60" height="30" as="geometry" />
        </mxCell>
        <mxCell id="hMkO9IF_Y1Dr7hpX967E-215" value="Admin" style="text;html=1;align=center;verticalAlign=middle;whiteSpace=wrap;rounded=0;" vertex="1" parent="sQbzJU6BTs8ZrNbQ2yf6-8">
          <mxGeometry x="135" y="90" width="60" height="30" as="geometry" />
        </mxCell>
        <mxCell id="hMkO9IF_Y1Dr7hpX967E-229" style="edgeStyle=orthogonalEdgeStyle;rounded=0;orthogonalLoop=1;jettySize=auto;html=1;exitX=1;exitY=0.25;exitDx=0;exitDy=0;entryX=0.5;entryY=1;entryDx=0;entryDy=0;fillColor=#f8cecc;strokeColor=#b85450;" edge="1" parent="sQbzJU6BTs8ZrNbQ2yf6-8" source="hMkO9IF_Y1Dr7hpX967E-113" target="hMkO9IF_Y1Dr7hpX967E-8">
          <mxGeometry relative="1" as="geometry">
            <Array as="points">
              <mxPoint x="185" y="325" />
              <mxPoint x="185" y="530" />
              <mxPoint x="101" y="530" />
            </Array>
          </mxGeometry>
        </mxCell>
        <mxCell id="hMkO9IF_Y1Dr7hpX967E-224" style="edgeStyle=orthogonalEdgeStyle;rounded=0;orthogonalLoop=1;jettySize=auto;html=1;exitX=0.25;exitY=1;exitDx=0;exitDy=0;entryX=0.75;entryY=1;entryDx=0;entryDy=0;fillColor=#f8cecc;strokeColor=#b85450;" edge="1" parent="sQbzJU6BTs8ZrNbQ2yf6-5" source="hMkO9IF_Y1Dr7hpX967E-94" target="sQbzJU6BTs8ZrNbQ2yf6-26">
          <mxGeometry relative="1" as="geometry">
            <Array as="points">
              <mxPoint x="259" y="700" />
              <mxPoint x="111" y="700" />
            </Array>
          </mxGeometry>
        </mxCell>
        <mxCell id="hMkO9IF_Y1Dr7hpX967E-231" style="edgeStyle=orthogonalEdgeStyle;rounded=0;orthogonalLoop=1;jettySize=auto;html=1;exitX=1;exitY=0;exitDx=0;exitDy=0;fillColor=#f8cecc;strokeColor=#b85450;entryX=1;entryY=0.5;entryDx=0;entryDy=0;" edge="1" parent="sQbzJU6BTs8ZrNbQ2yf6-5" source="hMkO9IF_Y1Dr7hpX967E-8" target="hMkO9IF_Y1Dr7hpX967E-136">
          <mxGeometry relative="1" as="geometry">
            <mxPoint x="370" y="380" as="targetPoint" />
            <Array as="points">
              <mxPoint x="520" y="510" />
              <mxPoint x="520" y="380" />
            </Array>
          </mxGeometry>
        </mxCell>
        <mxCell id="hMkO9IF_Y1Dr7hpX967E-235" style="edgeStyle=orthogonalEdgeStyle;rounded=0;orthogonalLoop=1;jettySize=auto;html=1;exitX=1;exitY=0.5;exitDx=0;exitDy=0;entryX=0.914;entryY=1.102;entryDx=0;entryDy=0;entryPerimeter=0;fillColor=#f8cecc;strokeColor=#b85450;" edge="1" parent="sQbzJU6BTs8ZrNbQ2yf6-5" source="hMkO9IF_Y1Dr7hpX967E-232" target="sQbzJU6BTs8ZrNbQ2yf6-23">
          <mxGeometry relative="1" as="geometry" />
        </mxCell>
        <mxCell id="hMkO9IF_Y1Dr7hpX967E-240" style="edgeStyle=orthogonalEdgeStyle;rounded=0;orthogonalLoop=1;jettySize=auto;html=1;exitX=1;exitY=0.5;exitDx=0;exitDy=0;fillColor=#f8cecc;strokeColor=#b85450;entryX=0;entryY=0.5;entryDx=0;entryDy=0;" edge="1" parent="sQbzJU6BTs8ZrNbQ2yf6-5" source="hMkO9IF_Y1Dr7hpX967E-223" target="hMkO9IF_Y1Dr7hpX967E-226">
          <mxGeometry relative="1" as="geometry">
            <mxPoint x="310" y="330" as="targetPoint" />
            <Array as="points">
              <mxPoint x="280" y="560" />
              <mxPoint x="280" y="320" />
            </Array>
          </mxGeometry>
        </mxCell>
      </root>
    </mxGraphModel>
  </diagram>
</mxfile>
